<svg xmlns="http://www.w3.org/2000/svg" xmlns:xlink="http://www.w3.org/1999/xlink" width="500" zoomAndPan="magnify" viewBox="0 0 375 374.999991" height="500" preserveAspectRatio="xMidYMid meet" version="1.0"><defs><g/><clipPath id="f036b22c97"><path d="M 272.378906 184.222656 L 283.296875 184.222656 L 283.296875 195.144531 L 272.378906 195.144531 Z M 272.378906 184.222656 " clip-rule="nonzero"/></clipPath><clipPath id="f9c61fdf69"><path d="M 277.839844 184.222656 C 274.824219 184.222656 272.378906 186.667969 272.378906 189.683594 C 272.378906 192.699219 274.824219 195.144531 277.839844 195.144531 C 280.855469 195.144531 283.296875 192.699219 283.296875 189.683594 C 283.296875 186.667969 280.855469 184.222656 277.839844 184.222656 Z M 277.839844 184.222656 " clip-rule="nonzero"/></clipPath><clipPath id="b25d34dd03"><path d="M 92.453125 152.453125 L 157.703125 152.453125 L 157.703125 220.703125 L 92.453125 220.703125 Z M 92.453125 152.453125 " clip-rule="nonzero"/></clipPath><clipPath id="e183bcd2f0"><path d="M 129.933594 184.25 L 100.808594 184.25 C 99.679688 184.25 98.863281 183.175781 99.167969 182.09375 L 107.164062 153.699219 C 107.371094 152.964844 108.042969 152.460938 108.804688 152.460938 L 137.929688 152.460938 C 139.058594 152.460938 139.875 153.535156 139.570312 154.617188 L 131.574219 183.011719 C 131.371094 183.742188 130.699219 184.25 129.933594 184.25 Z M 111.015625 205.679688 L 115.132812 191.0625 C 115.441406 189.980469 114.621094 188.90625 113.492188 188.90625 L 98.519531 188.90625 C 97.757812 188.90625 97.085938 189.410156 96.878906 190.144531 L 92.761719 204.761719 C 92.457031 205.847656 93.273438 206.921875 94.40625 206.921875 L 109.375 206.921875 C 110.140625 206.921875 110.8125 206.414062 111.015625 205.679688 Z M 118.59375 190.144531 L 110.597656 218.535156 C 110.292969 219.621094 111.109375 220.695312 112.238281 220.695312 L 141.363281 220.695312 C 142.128906 220.695312 142.800781 220.1875 143.003906 219.453125 L 151 191.0625 C 151.304688 189.980469 150.488281 188.90625 149.359375 188.90625 L 120.234375 188.90625 C 119.472656 188.90625 118.800781 189.410156 118.59375 190.144531 Z M 139.152344 167.472656 L 135.035156 182.09375 C 134.730469 183.175781 135.546875 184.25 136.675781 184.25 L 151.648438 184.25 C 152.414062 184.25 153.082031 183.742188 153.289062 183.011719 L 157.40625 168.390625 C 157.710938 167.308594 156.894531 166.234375 155.765625 166.234375 L 140.792969 166.234375 C 140.03125 166.234375 139.359375 166.738281 139.152344 167.472656 Z M 139.152344 167.472656 " clip-rule="nonzero"/></clipPath><linearGradient x1="114.296442" gradientTransform="matrix(0.136965, 0, 0, 0.136469, 92.698229, 152.459756)" y1="-47.633969" x2="358.610864" gradientUnits="userSpaceOnUse" y2="547.607251" id="4bac318775"><stop stop-opacity="1" stop-color="rgb(0%, 98.799133%, 65.899658%)" offset="0"/><stop stop-opacity="1" stop-color="rgb(0%, 98.799133%, 65.899658%)" offset="0.0625"/><stop stop-opacity="1" stop-color="rgb(0.0213623%, 98.773193%, 65.965271%)" offset="0.09375"/><stop stop-opacity="1" stop-color="rgb(0.100708%, 98.677063%, 66.210938%)" offset="0.101563"/><stop stop-opacity="1" stop-color="rgb(0.216675%, 98.536682%, 66.571045%)" offset="0.109375"/><stop stop-opacity="1" stop-color="rgb(0.332642%, 98.396301%, 66.929626%)" offset="0.117188"/><stop stop-opacity="1" stop-color="rgb(0.448608%, 98.25592%, 67.289734%)" offset="0.125"/><stop stop-opacity="1" stop-color="rgb(0.564575%, 98.117065%, 67.649841%)" offset="0.132813"/><stop stop-opacity="1" stop-color="rgb(0.679016%, 97.976685%, 68.008423%)" offset="0.140625"/><stop stop-opacity="1" stop-color="rgb(0.794983%, 97.836304%, 68.36853%)" offset="0.148438"/><stop stop-opacity="1" stop-color="rgb(0.91095%, 97.695923%, 68.727112%)" offset="0.15625"/><stop stop-opacity="1" stop-color="rgb(1.026917%, 97.555542%, 69.087219%)" offset="0.164062"/><stop stop-opacity="1" stop-color="rgb(1.142883%, 97.415161%, 69.445801%)" offset="0.171875"/><stop stop-opacity="1" stop-color="rgb(1.25885%, 97.27478%, 69.805908%)" offset="0.179688"/><stop stop-opacity="1" stop-color="rgb(1.374817%, 97.135925%, 70.16449%)" offset="0.1875"/><stop stop-opacity="1" stop-color="rgb(1.490784%, 96.995544%, 70.524597%)" offset="0.195312"/><stop stop-opacity="1" stop-color="rgb(1.60675%, 96.855164%, 70.883179%)" offset="0.203125"/><stop stop-opacity="1" stop-color="rgb(1.722717%, 96.714783%, 71.243286%)" offset="0.210938"/><stop stop-opacity="1" stop-color="rgb(1.838684%, 96.574402%, 71.603394%)" offset="0.21875"/><stop stop-opacity="1" stop-color="rgb(1.954651%, 96.434021%, 71.961975%)" offset="0.226562"/><stop stop-opacity="1" stop-color="rgb(2.070618%, 96.29364%, 72.322083%)" offset="0.234375"/><stop stop-opacity="1" stop-color="rgb(2.186584%, 96.153259%, 72.680664%)" offset="0.242188"/><stop stop-opacity="1" stop-color="rgb(2.302551%, 96.014404%, 73.040771%)" offset="0.25"/><stop stop-opacity="1" stop-color="rgb(2.418518%, 95.874023%, 73.399353%)" offset="0.257812"/><stop stop-opacity="1" stop-color="rgb(2.534485%, 95.733643%, 73.75946%)" offset="0.265625"/><stop stop-opacity="1" stop-color="rgb(2.650452%, 95.593262%, 74.118042%)" offset="0.273438"/><stop stop-opacity="1" stop-color="rgb(2.766418%, 95.452881%, 74.478149%)" offset="0.281113"/><stop stop-opacity="1" stop-color="rgb(2.824402%, 95.38269%, 74.658203%)" offset="0.28125"/><stop stop-opacity="1" stop-color="rgb(2.882385%, 95.3125%, 74.836731%)" offset="0.289062"/><stop stop-opacity="1" stop-color="rgb(2.998352%, 95.172119%, 75.196838%)" offset="0.296875"/><stop stop-opacity="1" stop-color="rgb(3.114319%, 95.031738%, 75.556946%)" offset="0.304688"/><stop stop-opacity="1" stop-color="rgb(3.230286%, 94.892883%, 75.915527%)" offset="0.3125"/><stop stop-opacity="1" stop-color="rgb(3.346252%, 94.752502%, 76.275635%)" offset="0.320312"/><stop stop-opacity="1" stop-color="rgb(3.462219%, 94.612122%, 76.634216%)" offset="0.328125"/><stop stop-opacity="1" stop-color="rgb(3.578186%, 94.471741%, 76.994324%)" offset="0.335938"/><stop stop-opacity="1" stop-color="rgb(3.694153%, 94.33136%, 77.352905%)" offset="0.34375"/><stop stop-opacity="1" stop-color="rgb(3.81012%, 94.190979%, 77.713013%)" offset="0.351563"/><stop stop-opacity="1" stop-color="rgb(3.926086%, 94.050598%, 78.071594%)" offset="0.359375"/><stop stop-opacity="1" stop-color="rgb(4.042053%, 93.911743%, 78.431702%)" offset="0.367188"/><stop stop-opacity="1" stop-color="rgb(4.15802%, 93.771362%, 78.790283%)" offset="0.375"/><stop stop-opacity="1" stop-color="rgb(4.273987%, 93.630981%, 79.150391%)" offset="0.382813"/><stop stop-opacity="1" stop-color="rgb(4.389954%, 93.490601%, 79.510498%)" offset="0.390625"/><stop stop-opacity="1" stop-color="rgb(4.50592%, 93.35022%, 79.86908%)" offset="0.398438"/><stop stop-opacity="1" stop-color="rgb(4.621887%, 93.209839%, 80.229187%)" offset="0.40625"/><stop stop-opacity="1" stop-color="rgb(4.737854%, 93.069458%, 80.587769%)" offset="0.414063"/><stop stop-opacity="1" stop-color="rgb(4.853821%, 92.929077%, 80.947876%)" offset="0.421875"/><stop stop-opacity="1" stop-color="rgb(4.969788%, 92.790222%, 81.306458%)" offset="0.429688"/><stop stop-opacity="1" stop-color="rgb(5.085754%, 92.649841%, 81.666565%)" offset="0.4375"/><stop stop-opacity="1" stop-color="rgb(5.201721%, 92.50946%, 82.025146%)" offset="0.445312"/><stop stop-opacity="1" stop-color="rgb(5.317688%, 92.36908%, 82.385254%)" offset="0.453125"/><stop stop-opacity="1" stop-color="rgb(5.433655%, 92.228699%, 82.743835%)" offset="0.460938"/><stop stop-opacity="1" stop-color="rgb(5.549622%, 92.088318%, 83.103943%)" offset="0.46875"/><stop stop-opacity="1" stop-color="rgb(5.665588%, 91.947937%, 83.46405%)" offset="0.476563"/><stop stop-opacity="1" stop-color="rgb(5.781555%, 91.807556%, 83.822632%)" offset="0.484375"/><stop stop-opacity="1" stop-color="rgb(5.897522%, 91.668701%, 84.182739%)" offset="0.492188"/><stop stop-opacity="1" stop-color="rgb(6.013489%, 91.52832%, 84.541321%)" offset="0.5"/><stop stop-opacity="1" stop-color="rgb(6.129456%, 91.387939%, 84.901428%)" offset="0.507812"/><stop stop-opacity="1" stop-color="rgb(6.245422%, 91.247559%, 85.26001%)" offset="0.515625"/><stop stop-opacity="1" stop-color="rgb(6.361389%, 91.107178%, 85.620117%)" offset="0.523438"/><stop stop-opacity="1" stop-color="rgb(6.477356%, 90.966797%, 85.978699%)" offset="0.53125"/><stop stop-opacity="1" stop-color="rgb(6.593323%, 90.826416%, 86.338806%)" offset="0.539062"/><stop stop-opacity="1" stop-color="rgb(6.70929%, 90.687561%, 86.697388%)" offset="0.546875"/><stop stop-opacity="1" stop-color="rgb(6.825256%, 90.54718%, 87.057495%)" offset="0.554688"/><stop stop-opacity="1" stop-color="rgb(6.941223%, 90.406799%, 87.417603%)" offset="0.5625"/><stop stop-opacity="1" stop-color="rgb(7.05719%, 90.266418%, 87.776184%)" offset="0.570313"/><stop stop-opacity="1" stop-color="rgb(7.171631%, 90.126038%, 88.136292%)" offset="0.578125"/><stop stop-opacity="1" stop-color="rgb(7.287598%, 89.985657%, 88.494873%)" offset="0.585938"/><stop stop-opacity="1" stop-color="rgb(7.403564%, 89.845276%, 88.85498%)" offset="0.59375"/><stop stop-opacity="1" stop-color="rgb(7.519531%, 89.704895%, 89.213562%)" offset="0.601562"/><stop stop-opacity="1" stop-color="rgb(7.635498%, 89.56604%, 89.573669%)" offset="0.609375"/><stop stop-opacity="1" stop-color="rgb(7.751465%, 89.425659%, 89.932251%)" offset="0.617188"/><stop stop-opacity="1" stop-color="rgb(7.867432%, 89.285278%, 90.292358%)" offset="0.625"/><stop stop-opacity="1" stop-color="rgb(7.983398%, 89.144897%, 90.65094%)" offset="0.632812"/><stop stop-opacity="1" stop-color="rgb(8.099365%, 89.004517%, 91.011047%)" offset="0.640625"/><stop stop-opacity="1" stop-color="rgb(8.215332%, 88.864136%, 91.371155%)" offset="0.648438"/><stop stop-opacity="1" stop-color="rgb(8.331299%, 88.723755%, 91.729736%)" offset="0.65625"/><stop stop-opacity="1" stop-color="rgb(8.447266%, 88.583374%, 92.089844%)" offset="0.664062"/><stop stop-opacity="1" stop-color="rgb(8.563232%, 88.444519%, 92.448425%)" offset="0.671875"/><stop stop-opacity="1" stop-color="rgb(8.679199%, 88.304138%, 92.808533%)" offset="0.679688"/><stop stop-opacity="1" stop-color="rgb(8.795166%, 88.163757%, 93.167114%)" offset="0.6875"/><stop stop-opacity="1" stop-color="rgb(8.911133%, 88.023376%, 93.527222%)" offset="0.695312"/><stop stop-opacity="1" stop-color="rgb(9.0271%, 87.882996%, 93.885803%)" offset="0.703125"/><stop stop-opacity="1" stop-color="rgb(9.143066%, 87.742615%, 94.245911%)" offset="0.710938"/><stop stop-opacity="1" stop-color="rgb(9.259033%, 87.602234%, 94.604492%)" offset="0.71875"/><stop stop-opacity="1" stop-color="rgb(9.375%, 87.463379%, 94.9646%)" offset="0.718887"/><stop stop-opacity="1" stop-color="rgb(9.432983%, 87.393188%, 95.144653%)" offset="0.726562"/><stop stop-opacity="1" stop-color="rgb(9.490967%, 87.322998%, 95.324707%)" offset="0.734375"/><stop stop-opacity="1" stop-color="rgb(9.606934%, 87.182617%, 95.683289%)" offset="0.742187"/><stop stop-opacity="1" stop-color="rgb(9.7229%, 87.042236%, 96.043396%)" offset="0.75"/><stop stop-opacity="1" stop-color="rgb(9.838867%, 86.901855%, 96.401978%)" offset="0.757812"/><stop stop-opacity="1" stop-color="rgb(9.954834%, 86.761475%, 96.762085%)" offset="0.765625"/><stop stop-opacity="1" stop-color="rgb(10.070801%, 86.621094%, 97.120667%)" offset="0.773438"/><stop stop-opacity="1" stop-color="rgb(10.186768%, 86.480713%, 97.480774%)" offset="0.78125"/><stop stop-opacity="1" stop-color="rgb(10.302734%, 86.341858%, 97.839355%)" offset="0.789062"/><stop stop-opacity="1" stop-color="rgb(10.418701%, 86.201477%, 98.199463%)" offset="0.796875"/><stop stop-opacity="1" stop-color="rgb(10.534668%, 86.061096%, 98.558044%)" offset="0.804687"/><stop stop-opacity="1" stop-color="rgb(10.650635%, 85.920715%, 98.918152%)" offset="0.8125"/><stop stop-opacity="1" stop-color="rgb(10.766602%, 85.780334%, 99.278259%)" offset="0.820312"/><stop stop-opacity="1" stop-color="rgb(10.882568%, 85.639954%, 99.636841%)" offset="0.828125"/><stop stop-opacity="1" stop-color="rgb(10.969543%, 85.534668%, 99.908447%)" offset="0.84375"/><stop stop-opacity="1" stop-color="rgb(10.998535%, 85.499573%, 100%)" offset="0.875"/><stop stop-opacity="1" stop-color="rgb(10.998535%, 85.499573%, 100%)" offset="1"/></linearGradient></defs><g fill="#ffffff" fill-opacity="1"><g transform="translate(166.179457, 194.304261)"><g><path d="M 6.59375 0.234375 C 6.007812 0.234375 5.515625 0.0351562 5.109375 -0.359375 C 4.710938 -0.765625 4.515625 -1.265625 4.515625 -1.859375 L 4.515625 -30.3125 C 4.515625 -30.894531 4.710938 -31.394531 5.109375 -31.8125 C 5.515625 -32.238281 6.007812 -32.453125 6.59375 -32.453125 L 17.203125 -32.453125 C 20.140625 -32.453125 22.535156 -31.953125 24.390625 -30.953125 C 26.253906 -29.960938 27.585938 -28.691406 28.390625 -27.140625 C 29.203125 -25.597656 29.609375 -23.925781 29.609375 -22.125 C 29.609375 -20.332031 29.203125 -18.660156 28.390625 -17.109375 C 27.585938 -15.554688 26.253906 -14.285156 24.390625 -13.296875 C 22.535156 -12.304688 20.140625 -11.8125 17.203125 -11.8125 L 8.734375 -11.8125 L 8.734375 -1.859375 C 8.734375 -1.265625 8.523438 -0.765625 8.109375 -0.359375 C 7.691406 0.0351562 7.1875 0.234375 6.59375 0.234375 Z M 16.78125 -15.8125 C 19.9375 -15.8125 22.15625 -16.414062 23.4375 -17.625 C 24.726562 -18.832031 25.375 -20.332031 25.375 -22.125 C 25.375 -23.925781 24.726562 -25.429688 23.4375 -26.640625 C 22.15625 -27.847656 19.9375 -28.453125 16.78125 -28.453125 L 8.734375 -28.453125 L 8.734375 -15.8125 Z M 16.78125 -15.8125 "/></g></g></g><g fill="#ffffff" fill-opacity="1"><g transform="translate(197.411732, 194.304261)"><g><path d="M 6.59375 0.234375 C 6.007812 0.234375 5.515625 0.0351562 5.109375 -0.359375 C 4.710938 -0.765625 4.515625 -1.265625 4.515625 -1.859375 L 4.515625 -29.609375 C 4.515625 -30.441406 4.804688 -31.160156 5.390625 -31.765625 C 5.984375 -32.367188 6.695312 -32.671875 7.53125 -32.671875 L 8.140625 -32.671875 C 9.128906 -32.671875 9.976562 -32.207031 10.6875 -31.28125 L 28.59375 -5.4375 L 28.59375 -30.546875 C 28.59375 -31.128906 28.789062 -31.628906 29.1875 -32.046875 C 29.59375 -32.460938 30.09375 -32.671875 30.6875 -32.671875 C 31.269531 -32.671875 31.769531 -32.460938 32.1875 -32.046875 C 32.601562 -31.628906 32.8125 -31.128906 32.8125 -30.546875 L 32.8125 -2.796875 C 32.8125 -1.953125 32.507812 -1.234375 31.90625 -0.640625 C 31.300781 -0.0546875 30.582031 0.234375 29.75 0.234375 L 29.1875 0.234375 C 28.695312 0.234375 28.234375 0.117188 27.796875 -0.109375 C 27.359375 -0.347656 27.003906 -0.648438 26.734375 -1.015625 L 8.734375 -27 L 8.734375 -1.859375 C 8.734375 -1.265625 8.523438 -0.765625 8.109375 -0.359375 C 7.691406 0.0351562 7.1875 0.234375 6.59375 0.234375 Z M 6.59375 0.234375 "/></g></g></g><g fill="#ffffff" fill-opacity="1"><g transform="translate(234.732446, 194.304261)"><g><path d="M 18.828125 0.46875 C 15.722656 0.46875 12.9375 -0.203125 10.46875 -1.546875 C 8.007812 -2.898438 6.078125 -4.835938 4.671875 -7.359375 C 3.265625 -9.890625 2.5625 -12.84375 2.5625 -16.21875 C 2.5625 -19.601562 3.265625 -22.554688 4.671875 -25.078125 C 6.078125 -27.597656 8.007812 -29.53125 10.46875 -30.875 C 12.9375 -32.226562 15.722656 -32.90625 18.828125 -32.90625 C 20.929688 -32.90625 22.8125 -32.65625 24.46875 -32.15625 C 26.132812 -31.664062 27.785156 -30.957031 29.421875 -30.03125 C 30.109375 -29.65625 30.453125 -29.066406 30.453125 -28.265625 C 30.453125 -27.796875 30.28125 -27.382812 29.9375 -27.03125 C 29.59375 -26.675781 29.144531 -26.5 28.59375 -26.5 C 28.28125 -26.5 28 -26.5625 27.75 -26.6875 C 26.382812 -27.394531 25.050781 -27.929688 23.75 -28.296875 C 22.445312 -28.671875 20.945312 -28.859375 19.25 -28.859375 C 16.582031 -28.859375 14.3125 -28.304688 12.4375 -27.203125 C 10.5625 -26.109375 9.148438 -24.609375 8.203125 -22.703125 C 7.253906 -20.796875 6.78125 -18.632812 6.78125 -16.21875 C 6.78125 -13.800781 7.253906 -11.640625 8.203125 -9.734375 C 9.148438 -7.828125 10.5625 -6.320312 12.4375 -5.21875 C 14.3125 -4.125 16.582031 -3.578125 19.25 -3.578125 C 20.945312 -3.578125 22.445312 -3.757812 23.75 -4.125 C 25.050781 -4.5 26.382812 -5.046875 27.75 -5.765625 C 28 -5.890625 28.28125 -5.953125 28.59375 -5.953125 C 29.144531 -5.953125 29.59375 -5.78125 29.9375 -5.4375 C 30.28125 -5.09375 30.453125 -4.675781 30.453125 -4.1875 C 30.453125 -3.375 30.109375 -2.785156 29.421875 -2.421875 C 27.785156 -1.484375 26.132812 -0.765625 24.46875 -0.265625 C 22.8125 0.222656 20.929688 0.46875 18.828125 0.46875 Z M 18.828125 0.46875 "/></g></g></g><g fill="#ffffff" fill-opacity="1"><g transform="translate(267.042731, 194.304261)"><g/></g></g><g clip-path="url(#f036b22c97)"><g clip-path="url(#f9c61fdf69)"><path fill="#00faa8" d="M 272.378906 184.222656 L 283.296875 184.222656 L 283.296875 195.144531 L 272.378906 195.144531 Z M 272.378906 184.222656 " fill-opacity="1" fill-rule="nonzero"/></g></g><g clip-path="url(#b25d34dd03)"><g clip-path="url(#e183bcd2f0)"><path fill="url(#4bac318775)" d="M 92.457031 152.460938 L 92.457031 220.695312 L 157.703125 220.695312 L 157.703125 152.460938 Z M 92.457031 152.460938 " fill-rule="nonzero"/></g></g><g fill="#ffffff" fill-opacity="1"><g transform="translate(167.845174, 216.345778)"><g><path d="M 6.484375 0.203125 C 4.753906 0.203125 3.128906 -0.125 1.609375 -0.78125 C 1.453125 -0.84375 1.316406 -0.953125 1.203125 -1.109375 C 1.097656 -1.265625 1.046875 -1.429688 1.046875 -1.609375 C 1.046875 -1.847656 1.125 -2.050781 1.28125 -2.21875 C 1.4375 -2.394531 1.640625 -2.484375 1.890625 -2.484375 C 2.023438 -2.484375 2.148438 -2.453125 2.265625 -2.390625 C 3.523438 -1.835938 4.867188 -1.5625 6.296875 -1.5625 C 8.691406 -1.5625 9.890625 -2.34375 9.890625 -3.90625 C 9.890625 -4.320312 9.734375 -4.664062 9.421875 -4.9375 C 9.117188 -5.207031 8.738281 -5.421875 8.28125 -5.578125 C 7.832031 -5.734375 7.191406 -5.921875 6.359375 -6.140625 C 5.253906 -6.429688 4.359375 -6.707031 3.671875 -6.96875 C 2.992188 -7.238281 2.410156 -7.640625 1.921875 -8.171875 C 1.429688 -8.703125 1.1875 -9.410156 1.1875 -10.296875 C 1.1875 -11.078125 1.390625 -11.78125 1.796875 -12.40625 C 2.210938 -13.039062 2.816406 -13.546875 3.609375 -13.921875 C 4.410156 -14.296875 5.367188 -14.484375 6.484375 -14.484375 C 7.984375 -14.484375 9.34375 -14.257812 10.5625 -13.8125 C 10.945312 -13.675781 11.140625 -13.40625 11.140625 -13 C 11.140625 -12.78125 11.0625 -12.582031 10.90625 -12.40625 C 10.757812 -12.226562 10.5625 -12.140625 10.3125 -12.140625 C 10.226562 -12.140625 10.117188 -12.164062 9.984375 -12.21875 C 8.921875 -12.582031 7.820312 -12.765625 6.6875 -12.765625 C 5.613281 -12.765625 4.738281 -12.5625 4.0625 -12.15625 C 3.382812 -11.75 3.046875 -11.175781 3.046875 -10.4375 C 3.046875 -9.945312 3.207031 -9.546875 3.53125 -9.234375 C 3.851562 -8.929688 4.253906 -8.691406 4.734375 -8.515625 C 5.222656 -8.347656 5.882812 -8.171875 6.71875 -7.984375 C 7.789062 -7.722656 8.65625 -7.460938 9.3125 -7.203125 C 9.976562 -6.941406 10.546875 -6.535156 11.015625 -5.984375 C 11.492188 -5.441406 11.734375 -4.707031 11.734375 -3.78125 C 11.734375 -3.019531 11.515625 -2.332031 11.078125 -1.71875 C 10.640625 -1.113281 10.023438 -0.640625 9.234375 -0.296875 C 8.441406 0.0351562 7.523438 0.203125 6.484375 0.203125 Z M 6.484375 0.203125 "/></g></g></g><g fill="#ffffff" fill-opacity="1"><g transform="translate(180.456288, 216.345778)"><g><path d="M 8.3125 0.203125 C 6.875 0.203125 5.613281 -0.109375 4.53125 -0.734375 C 3.457031 -1.359375 2.628906 -2.222656 2.046875 -3.328125 C 1.460938 -4.441406 1.15625 -5.710938 1.125 -7.140625 C 1.15625 -8.578125 1.460938 -9.847656 2.046875 -10.953125 C 2.628906 -12.054688 3.457031 -12.921875 4.53125 -13.546875 C 5.613281 -14.171875 6.875 -14.484375 8.3125 -14.484375 C 9.738281 -14.484375 10.988281 -14.171875 12.0625 -13.546875 C 13.132812 -12.921875 13.96875 -12.050781 14.5625 -10.9375 C 15.15625 -9.820312 15.46875 -8.554688 15.5 -7.140625 C 15.46875 -5.722656 15.15625 -4.457031 14.5625 -3.34375 C 13.96875 -2.226562 13.132812 -1.359375 12.0625 -0.734375 C 10.988281 -0.109375 9.738281 0.203125 8.3125 0.203125 Z M 8.3125 -1.53125 C 9.40625 -1.53125 10.351562 -1.773438 11.15625 -2.265625 C 11.957031 -2.765625 12.566406 -3.4375 12.984375 -4.28125 C 13.410156 -5.125 13.625 -6.078125 13.625 -7.140625 C 13.625 -8.203125 13.410156 -9.15625 12.984375 -10 C 12.566406 -10.851562 11.957031 -11.523438 11.15625 -12.015625 C 10.351562 -12.503906 9.40625 -12.75 8.3125 -12.75 C 7.207031 -12.75 6.253906 -12.503906 5.453125 -12.015625 C 4.648438 -11.523438 4.035156 -10.851562 3.609375 -10 C 3.191406 -9.15625 2.984375 -8.203125 2.984375 -7.140625 C 2.984375 -6.078125 3.191406 -5.125 3.609375 -4.28125 C 4.035156 -3.4375 4.648438 -2.765625 5.453125 -2.265625 C 6.253906 -1.773438 7.207031 -1.53125 8.3125 -1.53125 Z M 8.3125 -1.53125 "/></g></g></g><g fill="#ffffff" fill-opacity="1"><g transform="translate(197.080031, 216.345778)"><g><path d="M 2.90625 0.109375 C 2.644531 0.109375 2.425781 0.0195312 2.25 -0.15625 C 2.070312 -0.34375 1.984375 -0.5625 1.984375 -0.8125 L 1.984375 -13.34375 C 1.984375 -13.601562 2.070312 -13.820312 2.25 -14 C 2.425781 -14.1875 2.644531 -14.28125 2.90625 -14.28125 L 10.875 -14.28125 C 11.113281 -14.28125 11.316406 -14.195312 11.484375 -14.03125 C 11.660156 -13.863281 11.75 -13.65625 11.75 -13.40625 C 11.75 -13.15625 11.660156 -12.945312 11.484375 -12.78125 C 11.316406 -12.625 11.113281 -12.546875 10.875 -12.546875 L 3.84375 -12.546875 L 3.84375 -8.03125 L 10.15625 -8.03125 C 10.394531 -8.03125 10.597656 -7.941406 10.765625 -7.765625 C 10.941406 -7.597656 11.03125 -7.390625 11.03125 -7.140625 C 11.03125 -6.898438 10.941406 -6.695312 10.765625 -6.53125 C 10.597656 -6.363281 10.394531 -6.28125 10.15625 -6.28125 L 3.84375 -6.28125 L 3.84375 -0.8125 C 3.84375 -0.5625 3.75 -0.34375 3.5625 -0.15625 C 3.382812 0.0195312 3.164062 0.109375 2.90625 0.109375 Z M 2.90625 0.109375 "/></g></g></g><g fill="#ffffff" fill-opacity="1"><g transform="translate(209.527369, 216.345778)"><g><path d="M 6.21875 0.109375 C 5.957031 0.109375 5.738281 0.0195312 5.5625 -0.15625 C 5.382812 -0.34375 5.296875 -0.5625 5.296875 -0.8125 L 5.296875 -12.546875 L 1.125 -12.546875 C 0.875 -12.546875 0.664062 -12.625 0.5 -12.78125 C 0.34375 -12.945312 0.265625 -13.15625 0.265625 -13.40625 C 0.265625 -13.65625 0.34375 -13.863281 0.5 -14.03125 C 0.664062 -14.195312 0.875 -14.28125 1.125 -14.28125 L 11.3125 -14.28125 C 11.5625 -14.28125 11.769531 -14.195312 11.9375 -14.03125 C 12.113281 -13.863281 12.203125 -13.65625 12.203125 -13.40625 C 12.203125 -13.15625 12.113281 -12.945312 11.9375 -12.78125 C 11.769531 -12.625 11.5625 -12.546875 11.3125 -12.546875 L 7.15625 -12.546875 L 7.15625 -0.8125 C 7.15625 -0.5625 7.0625 -0.34375 6.875 -0.15625 C 6.695312 0.0195312 6.476562 0.109375 6.21875 0.109375 Z M 6.21875 0.109375 "/></g></g></g><g fill="#ffffff" fill-opacity="1"><g transform="translate(221.995168, 216.345778)"><g/></g></g><g fill="#ffffff" fill-opacity="1"><g transform="translate(227.318044, 216.345778)"><g><path d="M 6.21875 0.109375 C 5.957031 0.109375 5.738281 0.0195312 5.5625 -0.15625 C 5.382812 -0.34375 5.296875 -0.5625 5.296875 -0.8125 L 5.296875 -12.546875 L 1.125 -12.546875 C 0.875 -12.546875 0.664062 -12.625 0.5 -12.78125 C 0.34375 -12.945312 0.265625 -13.15625 0.265625 -13.40625 C 0.265625 -13.65625 0.34375 -13.863281 0.5 -14.03125 C 0.664062 -14.195312 0.875 -14.28125 1.125 -14.28125 L 11.3125 -14.28125 C 11.5625 -14.28125 11.769531 -14.195312 11.9375 -14.03125 C 12.113281 -13.863281 12.203125 -13.65625 12.203125 -13.40625 C 12.203125 -13.15625 12.113281 -12.945312 11.9375 -12.78125 C 11.769531 -12.625 11.5625 -12.546875 11.3125 -12.546875 L 7.15625 -12.546875 L 7.15625 -0.8125 C 7.15625 -0.5625 7.0625 -0.34375 6.875 -0.15625 C 6.695312 0.0195312 6.476562 0.109375 6.21875 0.109375 Z M 6.21875 0.109375 "/></g></g></g><g fill="#ffffff" fill-opacity="1"><g transform="translate(239.785843, 216.345778)"><g><path d="M 2.90625 0 C 2.644531 0 2.425781 -0.0859375 2.25 -0.265625 C 2.070312 -0.441406 1.984375 -0.660156 1.984375 -0.921875 L 1.984375 -13.34375 C 1.984375 -13.601562 2.070312 -13.820312 2.25 -14 C 2.425781 -14.1875 2.644531 -14.28125 2.90625 -14.28125 L 11.109375 -14.28125 C 11.359375 -14.28125 11.566406 -14.195312 11.734375 -14.03125 C 11.910156 -13.863281 12 -13.65625 12 -13.40625 C 12 -13.15625 11.910156 -12.945312 11.734375 -12.78125 C 11.566406 -12.625 11.359375 -12.546875 11.109375 -12.546875 L 3.84375 -12.546875 L 3.84375 -8.03125 L 10.375 -8.03125 C 10.625 -8.03125 10.832031 -7.941406 11 -7.765625 C 11.164062 -7.597656 11.25 -7.390625 11.25 -7.140625 C 11.25 -6.898438 11.164062 -6.695312 11 -6.53125 C 10.832031 -6.363281 10.625 -6.28125 10.375 -6.28125 L 3.84375 -6.28125 L 3.84375 -1.734375 L 11.109375 -1.734375 C 11.359375 -1.734375 11.566406 -1.648438 11.734375 -1.484375 C 11.910156 -1.316406 12 -1.109375 12 -0.859375 C 12 -0.609375 11.910156 -0.398438 11.734375 -0.234375 C 11.566406 -0.078125 11.359375 0 11.109375 0 Z M 2.90625 0 "/></g></g></g><g fill="#ffffff" fill-opacity="1"><g transform="translate(252.84735, 216.345778)"><g><path d="M 8.296875 0.203125 C 6.929688 0.203125 5.703125 -0.09375 4.609375 -0.6875 C 3.523438 -1.28125 2.671875 -2.128906 2.046875 -3.234375 C 1.429688 -4.347656 1.125 -5.648438 1.125 -7.140625 C 1.125 -8.628906 1.429688 -9.929688 2.046875 -11.046875 C 2.671875 -12.160156 3.523438 -13.007812 4.609375 -13.59375 C 5.703125 -14.1875 6.929688 -14.484375 8.296875 -14.484375 C 9.222656 -14.484375 10.050781 -14.375 10.78125 -14.15625 C 11.507812 -13.945312 12.234375 -13.632812 12.953125 -13.21875 C 13.253906 -13.0625 13.40625 -12.800781 13.40625 -12.4375 C 13.40625 -12.238281 13.328125 -12.0625 13.171875 -11.90625 C 13.023438 -11.75 12.832031 -11.671875 12.59375 -11.671875 C 12.457031 -11.671875 12.332031 -11.695312 12.21875 -11.75 C 11.613281 -12.0625 11.023438 -12.300781 10.453125 -12.46875 C 9.878906 -12.632812 9.21875 -12.71875 8.46875 -12.71875 C 7.300781 -12.71875 6.300781 -12.472656 5.46875 -11.984375 C 4.644531 -11.492188 4.023438 -10.828125 3.609375 -9.984375 C 3.191406 -9.148438 2.984375 -8.203125 2.984375 -7.140625 C 2.984375 -6.078125 3.191406 -5.125 3.609375 -4.28125 C 4.023438 -3.445312 4.644531 -2.785156 5.46875 -2.296875 C 6.300781 -1.816406 7.300781 -1.578125 8.46875 -1.578125 C 9.21875 -1.578125 9.878906 -1.65625 10.453125 -1.8125 C 11.023438 -1.976562 11.613281 -2.21875 12.21875 -2.53125 C 12.332031 -2.59375 12.457031 -2.625 12.59375 -2.625 C 12.832031 -2.625 13.023438 -2.546875 13.171875 -2.390625 C 13.328125 -2.242188 13.40625 -2.0625 13.40625 -1.84375 C 13.40625 -1.488281 13.253906 -1.226562 12.953125 -1.0625 C 12.234375 -0.65625 11.507812 -0.34375 10.78125 -0.125 C 10.050781 0.09375 9.222656 0.203125 8.296875 0.203125 Z M 8.296875 0.203125 "/></g></g></g><g fill="#ffffff" fill-opacity="1"><g transform="translate(267.0758, 216.345778)"><g><path d="M 2.90625 0.109375 C 2.644531 0.109375 2.425781 0.0195312 2.25 -0.15625 C 2.070312 -0.34375 1.984375 -0.5625 1.984375 -0.8125 L 1.984375 -13.453125 C 1.984375 -13.710938 2.070312 -13.929688 2.25 -14.109375 C 2.425781 -14.296875 2.644531 -14.390625 2.90625 -14.390625 C 3.164062 -14.390625 3.382812 -14.296875 3.5625 -14.109375 C 3.75 -13.929688 3.84375 -13.710938 3.84375 -13.453125 L 3.84375 -8 L 11.609375 -8 L 11.609375 -13.453125 C 11.609375 -13.710938 11.695312 -13.929688 11.875 -14.109375 C 12.050781 -14.296875 12.269531 -14.390625 12.53125 -14.390625 C 12.789062 -14.390625 13.007812 -14.296875 13.1875 -14.109375 C 13.375 -13.929688 13.46875 -13.710938 13.46875 -13.453125 L 13.46875 -0.8125 C 13.46875 -0.5625 13.375 -0.34375 13.1875 -0.15625 C 13.007812 0.0195312 12.789062 0.109375 12.53125 0.109375 C 12.269531 0.109375 12.050781 0.0195312 11.875 -0.15625 C 11.695312 -0.34375 11.609375 -0.5625 11.609375 -0.8125 L 11.609375 -6.265625 L 3.84375 -6.265625 L 3.84375 -0.8125 C 3.84375 -0.5625 3.75 -0.34375 3.5625 -0.15625 C 3.382812 0.0195312 3.164062 0.109375 2.90625 0.109375 Z M 2.90625 0.109375 "/></g></g></g></svg>