<svg width="255" height="91" viewBox="0 0 255 91" fill="none" xmlns="http://www.w3.org/2000/svg">
<path d="M107.093 56.114C106.312 56.114 105.656 55.8483 105.114 55.3223C104.583 54.7806 104.323 54.114 104.323 53.3223V15.3848C104.323 14.6088 104.583 13.9421 105.114 13.3848C105.656 12.8171 106.312 12.5306 107.093 12.5306H121.239C125.156 12.5306 128.349 13.1973 130.823 14.5306C133.307 15.8536 135.083 17.5463 136.156 19.614C137.239 21.6713 137.781 23.9004 137.781 26.3015C137.781 28.6921 137.239 30.9213 136.156 32.989C135.083 35.0619 133.307 36.7546 130.823 38.0723C128.349 39.3952 125.156 40.0515 121.239 40.0515H109.948V53.3223C109.948 54.114 109.666 54.7806 109.114 55.3223C108.557 55.8483 107.885 56.114 107.093 56.114ZM120.677 34.7181C124.885 34.7181 127.843 33.9161 129.552 32.3015C131.271 30.6921 132.135 28.6921 132.135 26.3015C132.135 23.9004 131.271 21.8952 129.552 20.2806C127.843 18.6713 124.885 17.864 120.677 17.864H109.948V34.7181H120.677Z" fill="white"/>
<path d="M148.736 56.114C147.955 56.114 147.299 55.8484 146.757 55.3223C146.226 54.7807 145.966 54.114 145.966 53.3223V16.3223C145.966 15.213 146.351 14.2546 147.132 13.4473C147.924 12.6453 148.872 12.239 149.986 12.239H150.799C152.117 12.239 153.247 12.8588 154.195 14.0932L178.07 48.5515V15.0723C178.07 14.2963 178.33 13.6296 178.861 13.0723C179.403 12.5203 180.07 12.239 180.861 12.239C181.637 12.239 182.304 12.5203 182.861 13.0723C183.413 13.6296 183.695 14.2963 183.695 15.0723V52.0723C183.695 53.1973 183.288 54.1557 182.486 54.9473C181.679 55.7286 180.721 56.114 179.611 56.114H178.861C178.205 56.114 177.591 55.9578 177.007 55.6557C176.424 55.338 175.95 54.9369 175.591 54.4473L151.591 19.8015V53.3223C151.591 54.114 151.309 54.7807 150.757 55.3223C150.2 55.8484 149.528 56.114 148.736 56.114Z" fill="white"/>
<path d="M214.81 56.4265C210.669 56.4265 206.956 55.5307 203.664 53.739C200.383 51.9369 197.81 49.3536 195.935 45.989C194.06 42.614 193.122 38.6765 193.122 34.1765C193.122 29.6661 194.06 25.7286 195.935 22.364C197.81 19.0046 200.383 16.4265 203.664 14.6348C206.956 12.8328 210.669 11.9265 214.81 11.9265C217.612 11.9265 220.122 12.2598 222.331 12.9265C224.55 13.5828 226.753 14.5255 228.935 15.7598C229.852 16.2598 230.31 17.0463 230.31 18.114C230.31 18.739 230.081 19.2911 229.622 19.7598C229.164 20.2338 228.565 20.4682 227.831 20.4682C227.414 20.4682 227.039 20.3848 226.706 20.2182C224.883 19.2755 223.107 18.5619 221.372 18.0723C219.633 17.5723 217.633 17.3223 215.372 17.3223C211.815 17.3223 208.789 18.0619 206.289 19.5307C203.789 20.989 201.904 22.989 200.643 25.5307C199.378 28.0723 198.747 30.9578 198.747 34.1765C198.747 37.4005 199.378 40.2807 200.643 42.8223C201.904 45.364 203.789 47.3744 206.289 48.8432C208.789 50.3015 211.815 51.0307 215.372 51.0307C217.633 51.0307 219.633 50.7911 221.372 50.3015C223.107 49.8015 224.883 49.0723 226.706 48.114C227.039 47.9473 227.414 47.864 227.831 47.864C228.565 47.864 229.164 48.0932 229.622 48.5515C230.081 49.0098 230.31 49.5671 230.31 50.2182C230.31 51.3015 229.852 52.088 228.935 52.5723C226.753 53.8223 224.55 54.7807 222.331 55.4473C220.122 56.0984 217.612 56.4265 214.81 56.4265Z" fill="white"/>
<mask id="mask0_51_2" style="mask-type:luminance" maskUnits="userSpaceOnUse" x="239" y="42" width="16" height="15">
<path d="M239.901 42.3594H254.458V56.9219H239.901V42.3594Z" fill="white"/>
</mask>
<g mask="url(#mask0_51_2)">
<mask id="mask1_51_2" style="mask-type:luminance" maskUnits="userSpaceOnUse" x="239" y="42" width="16" height="15">
<path d="M247.182 42.3594C243.161 42.3594 239.901 45.6198 239.901 49.6406C239.901 53.6615 243.161 56.9219 247.182 56.9219C251.203 56.9219 254.458 53.6615 254.458 49.6406C254.458 45.6198 251.203 42.3594 247.182 42.3594Z" fill="white"/>
</mask>
<g mask="url(#mask1_51_2)">
<path d="M239.901 42.3594H254.458V56.9219H239.901V42.3594Z" fill="#00FAA8"/>
</g>
</g>
<mask id="mask2_51_2" style="mask-type:luminance" maskUnits="userSpaceOnUse" x="0" y="0" width="87" height="91">
<path d="M0 0H87V91H0V0Z" fill="white"/>
</mask>
<g mask="url(#mask2_51_2)">
<mask id="mask3_51_2" style="mask-type:luminance" maskUnits="userSpaceOnUse" x="0" y="0" width="87" height="91">
<path d="M49.9739 42.3958H11.1406C9.63536 42.3958 8.54682 40.9635 8.95307 39.5208L19.6145 1.66145C19.8906 0.682282 20.7864 0.0104065 21.802 0.0104065H60.6354C62.1406 0.0104065 63.2291 1.4427 62.8229 2.88541L52.1614 40.7448C51.8906 41.7187 50.9947 42.3958 49.9739 42.3958ZM24.7499 70.9687L30.2395 51.4792C30.651 50.0364 29.5572 48.6042 28.052 48.6042H8.08849C7.07286 48.6042 6.17703 49.276 5.90099 50.2552L0.411402 69.7448C0.00515104 71.1927 1.09369 72.625 2.60411 72.625H22.5624C23.5833 72.625 24.4791 71.9479 24.7499 70.9687ZM34.8541 50.2552L24.1927 88.1094C23.7864 89.5573 24.8749 90.9896 26.3802 90.9896H65.2135C66.2343 90.9896 67.1302 90.3125 67.401 89.3333L78.0624 51.4792C78.4687 50.0364 77.3802 48.6042 75.8749 48.6042H37.0416C36.026 48.6042 35.1302 49.276 34.8541 50.2552ZM62.2656 20.026L56.776 39.5208C56.3697 40.9635 57.4583 42.3958 58.9635 42.3958H78.927C79.9479 42.3958 80.8385 41.7187 81.1145 40.7448L86.6041 21.25C87.0104 19.8073 85.9218 18.375 84.4166 18.375H64.4531C63.4374 18.375 62.5416 19.0469 62.2656 20.026Z" fill="white"/>
</mask>
<g mask="url(#mask3_51_2)">
<path d="M0.00512695 0.0104065V90.9896H86.9999V0.0104065H0.00512695Z" fill="url(#paint0_linear_51_2)"/>
</g>
</g>
<path d="M109.169 85.461C106.861 85.461 104.695 85.0235 102.669 84.1485C102.46 84.0652 102.278 83.9194 102.127 83.711C101.986 83.5027 101.919 83.2839 101.919 83.0444C101.919 82.7266 102.023 82.4558 102.231 82.2319C102.439 81.9975 102.71 81.8777 103.044 81.8777C103.221 81.8777 103.387 81.9194 103.544 82.0027C105.221 82.7423 107.012 83.1069 108.919 83.1069C112.111 83.1069 113.71 82.0652 113.71 79.9819C113.71 79.4298 113.502 78.9714 113.085 78.6069C112.679 78.2475 112.174 77.961 111.564 77.7527C110.965 77.5444 110.111 77.2944 109.002 77.0027C107.528 76.6173 106.335 76.2475 105.419 75.8985C104.512 75.5391 103.736 75.0027 103.085 74.2944C102.429 73.586 102.106 72.6433 102.106 71.461C102.106 70.4194 102.377 69.4819 102.919 68.6485C103.471 67.8048 104.278 67.1277 105.335 66.6277C106.403 66.1277 107.679 65.8777 109.169 65.8777C111.169 65.8777 112.981 66.1798 114.606 66.7735C115.116 66.9558 115.377 67.3152 115.377 67.8569C115.377 68.1485 115.273 68.4141 115.064 68.6485C114.866 68.8881 114.606 69.0027 114.273 69.0027C114.158 69.0027 114.012 68.9714 113.835 68.8985C112.419 68.4141 110.95 68.1694 109.439 68.1694C108.007 68.1694 106.84 68.4402 105.939 68.9819C105.033 69.5235 104.585 70.2891 104.585 71.2735C104.585 71.9298 104.799 72.461 105.231 72.8777C105.658 73.2839 106.195 73.6016 106.835 73.836C107.486 74.06 108.366 74.2944 109.481 74.5444C110.908 74.8933 112.064 75.2423 112.939 75.586C113.825 75.935 114.585 76.4766 115.21 77.211C115.846 77.935 116.169 78.9141 116.169 80.1485C116.169 81.1641 115.877 82.0808 115.294 82.8985C114.71 83.7058 113.887 84.336 112.835 84.7944C111.778 85.2371 110.554 85.461 109.169 85.461Z" fill="white"/>
<path d="M128.421 85.461C126.504 85.461 124.822 85.0444 123.379 84.211C121.947 83.3777 120.843 82.2266 120.067 80.7527C119.285 79.2683 118.879 77.5756 118.838 75.6694C118.879 73.7527 119.285 72.06 120.067 70.586C120.843 69.1173 121.947 67.961 123.379 67.1277C124.822 66.2944 126.504 65.8777 128.421 65.8777C130.322 65.8777 131.989 66.2944 133.421 67.1277C134.848 67.961 135.963 69.1225 136.754 70.6069C137.546 72.0964 137.963 73.7839 138.004 75.6694C137.963 77.56 137.546 79.2475 136.754 80.7319C135.963 82.2214 134.848 83.3777 133.421 84.211C131.989 85.0444 130.322 85.461 128.421 85.461ZM128.421 83.1485C129.879 83.1485 131.14 82.8256 132.213 82.1694C133.28 81.5027 134.093 80.6069 134.65 79.4819C135.218 78.3569 135.504 77.086 135.504 75.6694C135.504 74.2527 135.218 72.9819 134.65 71.8569C134.093 70.7214 133.28 69.8256 132.213 69.1694C131.14 68.5183 129.879 68.1902 128.421 68.1902C126.947 68.1902 125.676 68.5183 124.608 69.1694C123.535 69.8256 122.718 70.7214 122.15 71.8569C121.593 72.9819 121.317 74.2527 121.317 75.6694C121.317 77.086 121.593 78.3569 122.15 79.4819C122.718 80.6069 123.535 81.5027 124.608 82.1694C125.676 82.8256 126.947 83.1485 128.421 83.1485Z" fill="white"/>
<path d="M143.377 85.336C143.029 85.336 142.737 85.2162 142.502 84.9818C142.263 84.7318 142.148 84.4402 142.148 84.1068V67.3985C142.148 67.0547 142.263 66.7631 142.502 66.5235C142.737 66.2735 143.029 66.1485 143.377 66.1485H154.002C154.32 66.1485 154.591 66.2631 154.815 66.4818C155.049 66.7058 155.169 66.9818 155.169 67.3152C155.169 67.6485 155.049 67.9297 154.815 68.1485C154.591 68.3568 154.32 68.461 154.002 68.461H144.627V74.4818H153.044C153.362 74.4818 153.633 74.6016 153.857 74.836C154.091 75.06 154.211 75.336 154.211 75.6693C154.211 75.9922 154.091 76.2631 153.857 76.4818C153.633 76.7058 153.362 76.8152 153.044 76.8152H144.627V84.1068C144.627 84.4402 144.502 84.7318 144.252 84.9818C144.013 85.2162 143.721 85.336 143.377 85.336Z" fill="white"/>
<path d="M164.391 85.336C164.042 85.336 163.75 85.2162 163.516 84.9818C163.276 84.7318 163.161 84.4402 163.161 84.1068V68.461H157.599C157.266 68.461 156.984 68.3568 156.766 68.1485C156.557 67.9297 156.453 67.6485 156.453 67.3152C156.453 66.9818 156.557 66.7058 156.766 66.4818C156.984 66.2631 157.266 66.1485 157.599 66.1485H171.182C171.516 66.1485 171.792 66.2631 172.016 66.4818C172.25 66.7058 172.37 66.9818 172.37 67.3152C172.37 67.6485 172.25 67.9297 172.016 68.1485C171.792 68.3568 171.516 68.461 171.182 68.461H165.641V84.1068C165.641 84.4402 165.516 84.7318 165.266 84.9818C165.026 85.2162 164.734 85.336 164.391 85.336Z" fill="white"/>
<path d="M188.111 85.336C187.762 85.336 187.471 85.2162 187.236 84.9818C186.997 84.7318 186.882 84.4402 186.882 84.1068V68.461H181.32C180.986 68.461 180.705 68.3568 180.486 68.1485C180.278 67.9297 180.174 67.6485 180.174 67.3152C180.174 66.9818 180.278 66.7058 180.486 66.4818C180.705 66.2631 180.986 66.1485 181.32 66.1485H194.903C195.236 66.1485 195.512 66.2631 195.736 66.4818C195.971 66.7058 196.091 66.9818 196.091 67.3152C196.091 67.6485 195.971 67.9297 195.736 68.1485C195.512 68.3568 195.236 68.461 194.903 68.461H189.361V84.1068C189.361 84.4402 189.236 84.7318 188.986 84.9818C188.747 85.2162 188.455 85.336 188.111 85.336Z" fill="white"/>
<path d="M200.319 85.1902C199.97 85.1902 199.678 85.0756 199.444 84.836C199.204 84.6016 199.089 84.31 199.089 83.961V67.3985C199.089 67.0547 199.204 66.7631 199.444 66.5235C199.678 66.2735 199.97 66.1485 200.319 66.1485H211.256C211.589 66.1485 211.866 66.2631 212.089 66.4818C212.324 66.7058 212.444 66.9818 212.444 67.3152C212.444 67.6485 212.324 67.9297 212.089 68.1485C211.866 68.3568 211.589 68.461 211.256 68.461H201.569V74.4818H210.277C210.61 74.4818 210.886 74.6016 211.11 74.836C211.329 75.06 211.444 75.336 211.444 75.6693C211.444 75.9922 211.329 76.2631 211.11 76.4818C210.886 76.7058 210.61 76.8152 210.277 76.8152H201.569V82.8777H211.256C211.589 82.8777 211.866 82.9922 212.089 83.211C212.324 83.435 212.444 83.711 212.444 84.0443C212.444 84.3777 212.324 84.6589 212.089 84.8777C211.866 85.086 211.589 85.1902 211.256 85.1902H200.319Z" fill="white"/>
<path d="M224.921 85.461C223.098 85.461 221.463 85.0652 220.005 84.2735C218.557 83.4819 217.421 82.3516 216.588 80.8777C215.765 79.3933 215.359 77.6589 215.359 75.6694C215.359 73.685 215.765 71.9506 216.588 70.461C217.421 68.9766 218.557 67.8464 220.005 67.0652C221.463 66.2735 223.098 65.8777 224.921 65.8777C226.156 65.8777 227.26 66.0235 228.234 66.3152C229.203 66.5964 230.171 67.0131 231.13 67.5652C231.531 67.7735 231.734 68.1225 231.734 68.6069C231.734 68.8725 231.63 69.1069 231.421 69.3152C231.223 69.5235 230.968 69.6277 230.651 69.6277C230.468 69.6277 230.302 69.5964 230.151 69.5235C229.343 69.1069 228.557 68.7891 227.796 68.5652C227.031 68.3464 226.151 68.2319 225.151 68.2319C223.593 68.2319 222.26 68.56 221.151 69.211C220.052 69.8673 219.223 70.7527 218.671 71.8777C218.114 72.9923 217.838 74.2527 217.838 75.6694C217.838 77.086 218.114 78.3569 218.671 79.4819C219.223 80.5964 220.052 81.4766 221.151 82.1277C222.26 82.7683 223.593 83.086 225.151 83.086C226.151 83.086 227.031 82.9819 227.796 82.7735C228.557 82.5548 229.343 82.2319 230.151 81.8152C230.302 81.7319 230.468 81.6902 230.651 81.6902C230.968 81.6902 231.223 81.7944 231.421 82.0027C231.63 82.2006 231.734 82.4402 231.734 82.7319C231.734 83.2058 231.531 83.5548 231.13 83.7735C230.171 84.3152 229.203 84.7319 228.234 85.0235C227.26 85.3152 226.156 85.461 224.921 85.461Z" fill="white"/>
<path d="M236.705 85.336C236.356 85.336 236.065 85.2162 235.83 84.9819C235.591 84.7319 235.476 84.4402 235.476 84.1069V67.2527C235.476 66.9089 235.591 66.6173 235.83 66.3777C236.065 66.1277 236.356 66.0027 236.705 66.0027C237.049 66.0027 237.341 66.1277 237.58 66.3777C237.83 66.6173 237.955 66.9089 237.955 67.2527V74.5235H248.309V67.2527C248.309 66.9089 248.424 66.6173 248.664 66.3777C248.898 66.1277 249.19 66.0027 249.539 66.0027C249.882 66.0027 250.174 66.1277 250.414 66.3777C250.664 66.6173 250.789 66.9089 250.789 67.2527V84.1069C250.789 84.4402 250.664 84.7319 250.414 84.9819C250.174 85.2162 249.882 85.336 249.539 85.336C249.19 85.336 248.898 85.2162 248.664 84.9819C248.424 84.7319 248.309 84.4402 248.309 84.1069V76.836H237.955V84.1069C237.955 84.4402 237.83 84.7319 237.58 84.9819C237.341 85.2162 237.049 85.336 236.705 85.336Z" fill="white"/>
<defs>
<linearGradient id="paint0_linear_51_2" x1="21.1995" y1="-8.65858" x2="65.5399" y2="99.7637" gradientUnits="userSpaceOnUse">
<stop stop-color="#00FCA8"/>
<stop offset="0.0625" stop-color="#00FCA8"/>
<stop offset="0.09375" stop-color="#00FCA8"/>
<stop offset="0.101563" stop-color="#00FCA9"/>
<stop offset="0.109375" stop-color="#01FBAA"/>
<stop offset="0.117188" stop-color="#01FBAB"/>
<stop offset="0.125" stop-color="#01FBAC"/>
<stop offset="0.132813" stop-color="#01FAAD"/>
<stop offset="0.140625" stop-color="#02FAAD"/>
<stop offset="0.148438" stop-color="#02F9AE"/>
<stop offset="0.15625" stop-color="#02F9AF"/>
<stop offset="0.164062" stop-color="#03F9B0"/>
<stop offset="0.171875" stop-color="#03F8B1"/>
<stop offset="0.179688" stop-color="#03F8B2"/>
<stop offset="0.1875" stop-color="#04F8B3"/>
<stop offset="0.195312" stop-color="#04F7B4"/>
<stop offset="0.203125" stop-color="#04F7B5"/>
<stop offset="0.210938" stop-color="#04F7B6"/>
<stop offset="0.21875" stop-color="#05F6B7"/>
<stop offset="0.226562" stop-color="#05F6B8"/>
<stop offset="0.234375" stop-color="#05F6B8"/>
<stop offset="0.242188" stop-color="#06F5B9"/>
<stop offset="0.25" stop-color="#06F5BA"/>
<stop offset="0.257812" stop-color="#06F4BB"/>
<stop offset="0.265625" stop-color="#06F4BC"/>
<stop offset="0.273438" stop-color="#07F4BD"/>
<stop offset="0.281113" stop-color="#07F3BE"/>
<stop offset="0.28125" stop-color="#07F3BE"/>
<stop offset="0.289062" stop-color="#07F3BF"/>
<stop offset="0.296875" stop-color="#08F3C0"/>
<stop offset="0.304688" stop-color="#08F2C1"/>
<stop offset="0.3125" stop-color="#08F2C2"/>
<stop offset="0.320312" stop-color="#09F2C3"/>
<stop offset="0.328125" stop-color="#09F1C3"/>
<stop offset="0.335938" stop-color="#09F1C4"/>
<stop offset="0.34375" stop-color="#09F1C5"/>
<stop offset="0.351563" stop-color="#0AF0C6"/>
<stop offset="0.359375" stop-color="#0AF0C7"/>
<stop offset="0.367188" stop-color="#0AEFC8"/>
<stop offset="0.375" stop-color="#0BEFC9"/>
<stop offset="0.382813" stop-color="#0BEFCA"/>
<stop offset="0.390625" stop-color="#0BEECB"/>
<stop offset="0.398438" stop-color="#0BEECC"/>
<stop offset="0.40625" stop-color="#0CEECD"/>
<stop offset="0.414063" stop-color="#0CEDCD"/>
<stop offset="0.421875" stop-color="#0CEDCE"/>
<stop offset="0.429688" stop-color="#0DEDCF"/>
<stop offset="0.4375" stop-color="#0DECD0"/>
<stop offset="0.445312" stop-color="#0DECD1"/>
<stop offset="0.453125" stop-color="#0EECD2"/>
<stop offset="0.460938" stop-color="#0EEBD3"/>
<stop offset="0.46875" stop-color="#0EEBD4"/>
<stop offset="0.476563" stop-color="#0EEAD5"/>
<stop offset="0.484375" stop-color="#0FEAD6"/>
<stop offset="0.492188" stop-color="#0FEAD7"/>
<stop offset="0.5" stop-color="#0FE9D8"/>
<stop offset="0.507812" stop-color="#10E9D8"/>
<stop offset="0.515625" stop-color="#10E9D9"/>
<stop offset="0.523438" stop-color="#10E8DA"/>
<stop offset="0.53125" stop-color="#11E8DB"/>
<stop offset="0.539062" stop-color="#11E8DC"/>
<stop offset="0.546875" stop-color="#11E7DD"/>
<stop offset="0.554688" stop-color="#11E7DE"/>
<stop offset="0.5625" stop-color="#12E7DF"/>
<stop offset="0.570313" stop-color="#12E6E0"/>
<stop offset="0.578125" stop-color="#12E6E1"/>
<stop offset="0.585938" stop-color="#13E5E2"/>
<stop offset="0.59375" stop-color="#13E5E3"/>
<stop offset="0.601562" stop-color="#13E5E3"/>
<stop offset="0.609375" stop-color="#13E4E4"/>
<stop offset="0.617188" stop-color="#14E4E5"/>
<stop offset="0.625" stop-color="#14E4E6"/>
<stop offset="0.632812" stop-color="#14E3E7"/>
<stop offset="0.640625" stop-color="#15E3E8"/>
<stop offset="0.648438" stop-color="#15E3E9"/>
<stop offset="0.65625" stop-color="#15E2EA"/>
<stop offset="0.664062" stop-color="#16E2EB"/>
<stop offset="0.671875" stop-color="#16E2EC"/>
<stop offset="0.679688" stop-color="#16E1ED"/>
<stop offset="0.6875" stop-color="#16E1EE"/>
<stop offset="0.695312" stop-color="#17E0EE"/>
<stop offset="0.703125" stop-color="#17E0EF"/>
<stop offset="0.710938" stop-color="#17E0F0"/>
<stop offset="0.71875" stop-color="#18DFF1"/>
<stop offset="0.718887" stop-color="#18DFF2"/>
<stop offset="0.726562" stop-color="#00FAA8"/>
<stop offset="0.734375" stop-color="#00FAA8"/>
<stop offset="0.742187" stop-color="#18DEF4"/>
<stop offset="0.75" stop-color="#19DEF5"/>
<stop offset="0.757812" stop-color="#19DEF6"/>
<stop offset="0.765625" stop-color="#19DDF7"/>
<stop offset="0.773438" stop-color="#1ADDF8"/>
<stop offset="0.78125" stop-color="#1ADDF9"/>
<stop offset="0.789062" stop-color="#1ADCF9"/>
<stop offset="0.796875" stop-color="#1BDCFA"/>
<stop offset="0.804687" stop-color="#1BDBFB"/>
<stop offset="0.8125" stop-color="#1BDBFC"/>
<stop offset="0.820312" stop-color="#1BDBFD"/>
<stop offset="0.828125" stop-color="#1CDAFE"/>
<stop offset="0.84375" stop-color="#1CDAFF"/>
<stop offset="0.875" stop-color="#1CDAFF"/>
<stop offset="1" stop-color="#1CDAFF"/>
</linearGradient>
</defs>
</svg>
